<svg width="32" height="32" viewBox="0 0 32 32" fill="none" xmlns="http://www.w3.org/2000/svg">
  <!-- Background -->
  <rect width="32" height="32" rx="4" fill="#ffffff"/>
  
  <!-- Treble Clef -->
  <path d="M16 4C18 4 19.5 5.5 19.5 7.5C19.5 9 18.5 10 17 10.5L17 20C17 22 15.5 23.5 13.5 23.5C11.5 23.5 10 22 10 20C10 18.5 11 17.5 12.5 17.5C13.5 17.5 14.5 18 14.5 19L14.5 10C14.5 8 15.5 6.5 17 6L17 7.5C17 8.5 16.5 9 15.5 9C14.5 9 14 8.5 14 7.5C14 6.5 14.5 6 15.5 6C15.8 6 16 5.8 16 5.5C16 5.2 15.8 5 15.5 5C14 5 12.5 6.5 12.5 8.5C12.5 10.5 14 12 16 12C18 12 19.5 10.5 19.5 8.5C19.5 6.5 18 5 16 5V4Z" fill="#1a1a2e" stroke="#1a1a2e" stroke-width="0.5"/>
  
  <!-- Musical Notes -->
  <circle cx="8" cy="12" r="1" fill="#6366f1"/>
  <circle cx="24" cy="8" r="1" fill="#6366f1"/>
  <circle cx="6" cy="20" r="0.8" fill="#ec4899"/>
  <circle cx="26" cy="16" r="0.8" fill="#ec4899"/>
  <circle cx="4" cy="16" r="0.6" fill="#06d6a0"/>
  <circle cx="28" cy="24" r="0.6" fill="#06d6a0"/>
  
  <!-- Staff Lines (subtle) -->
  <line x1="2" y1="14" x2="8" y2="14" stroke="#e5e7eb" stroke-width="0.5"/>
  <line x1="2" y1="16" x2="8" y2="16" stroke="#e5e7eb" stroke-width="0.5"/>
  <line x1="2" y1="18" x2="8" y2="18" stroke="#e5e7eb" stroke-width="0.5"/>
  
  <line x1="24" y1="10" x2="30" y2="10" stroke="#e5e7eb" stroke-width="0.5"/>
  <line x1="24" y1="12" x2="30" y2="12" stroke="#e5e7eb" stroke-width="0.5"/>
  <line x1="24" y1="14" x2="30" y2="14" stroke="#e5e7eb" stroke-width="0.5"/>
</svg>
